<svg width="178" height="40" viewBox="0 0 178 40" fill="none" xmlns="http://www.w3.org/2000/svg">
<path d="M115.391 4.62979H119.163L128.785 28.5738L138.386 4.62979H142.179L130.237 34H127.292L115.391 4.62979ZM114.16 4.62979H117.488L118.033 22.5424V34H114.16V4.62979ZM140.061 4.62979H143.389V34H139.516V22.5424L140.061 4.62979ZM159.381 34.4034C157.861 34.4034 156.483 34.1479 155.245 33.6369C154.022 33.1124 152.966 32.3795 152.078 31.4382C151.204 30.4968 150.532 29.3806 150.061 28.0896C149.591 26.7986 149.355 25.3866 149.355 23.8536V23.0063C149.355 21.2312 149.617 19.6511 150.142 18.266C150.666 16.8674 151.379 15.684 152.28 14.7157C153.181 13.7475 154.203 13.0146 155.346 12.517C156.489 12.0194 157.673 11.7706 158.897 11.7706C160.456 11.7706 161.801 12.0396 162.931 12.5775C164.074 13.1154 165.009 13.8685 165.735 14.8367C166.461 15.7915 166.999 16.9212 167.349 18.2256C167.698 19.5166 167.873 20.9286 167.873 22.4617V24.136H151.574V21.09H164.141V20.8076C164.087 19.8394 163.886 18.898 163.536 17.9836C163.2 17.0691 162.662 16.316 161.922 15.7243C161.183 15.1326 160.174 14.8367 158.897 14.8367C158.049 14.8367 157.269 15.0183 156.557 15.3814C155.844 15.731 155.232 16.2555 154.721 16.9548C154.21 17.6541 153.813 18.508 153.531 19.5166C153.248 20.5252 153.107 21.6884 153.107 23.0063V23.8536C153.107 24.889 153.248 25.864 153.531 26.7785C153.827 27.6795 154.25 28.4729 154.802 29.1588C155.366 29.8446 156.046 30.3825 156.839 30.7725C157.646 31.1625 158.56 31.3575 159.582 31.3575C160.9 31.3575 162.016 31.0885 162.931 30.5506C163.845 30.0127 164.645 29.2932 165.331 28.3922L167.591 30.1875C167.12 30.9003 166.521 31.5794 165.795 32.2249C165.069 32.8704 164.175 33.3948 163.112 33.7983C162.063 34.2017 160.82 34.4034 159.381 34.4034Z" fill="#1D1D1B"/>
<path d="M87.4077 21.2671C87.4077 20.1213 87.8016 19.1634 88.5894 18.3936C89.395 17.6237 90.4603 17.2388 91.7852 17.2388C93.11 17.2388 94.1663 17.6237 94.9541 18.3936C95.7598 19.1634 96.1626 20.1213 96.1626 21.2671C96.1626 22.4129 95.7598 23.3708 94.9541 24.1406C94.1663 24.9105 93.11 25.2954 91.7852 25.2954C90.4603 25.2954 89.395 24.9105 88.5894 24.1406C87.8016 23.3708 87.4077 22.4129 87.4077 21.2671Z" fill="#1D1D1B"/>
<path opacity="0.99" d="M14.0598 21.9085H6.55585L6.51551 17.9951H12.9503C14.0531 17.9951 14.9742 17.8405 15.7139 17.5312C16.4535 17.2219 17.0116 16.7714 17.3881 16.1797C17.7781 15.588 17.9731 14.8685 17.9731 14.0213C17.9731 13.0799 17.7916 12.3134 17.4285 11.7217C17.0788 11.13 16.5275 10.6996 15.7744 10.4307C15.0213 10.1483 14.0665 10.0071 12.91 10.0071H8.35115V35H2.80389V5.62979H12.91C14.5775 5.62979 16.0635 5.79116 17.368 6.11391C18.6859 6.42321 19.802 6.90734 20.7165 7.56628C21.6309 8.22523 22.3235 9.05228 22.7942 10.0474C23.2783 11.0426 23.5204 12.226 23.5204 13.5977C23.5204 14.808 23.238 15.9242 22.6732 16.9462C22.1218 17.9548 21.2679 18.7751 20.1113 19.4072C18.9683 20.0392 17.5159 20.4023 15.7542 20.4964L14.0598 21.9085ZM13.8177 35H4.92193L7.24169 30.6429H13.8177C14.9204 30.6429 15.8282 30.4613 16.5409 30.0982C17.2671 29.7351 17.805 29.2376 18.1547 28.6055C18.5178 27.96 18.6993 27.2204 18.6993 26.3866C18.6993 25.4722 18.5379 24.6787 18.2152 24.0063C17.9059 23.3339 17.4083 22.8162 16.7225 22.4531C16.0501 22.09 15.1625 21.9085 14.0598 21.9085H8.29063L8.33097 17.9951H15.6735L16.9444 19.508C18.6388 19.5215 20.0172 19.8577 21.0796 20.5166C22.1554 21.1756 22.9488 22.0228 23.4599 23.0583C23.9709 24.0938 24.2264 25.2099 24.2264 26.4068C24.2264 28.2895 23.8162 29.8696 22.9959 31.1472C22.189 32.4247 21.0056 33.3863 19.4457 34.0318C17.8992 34.6773 16.0232 35 13.8177 35ZM53.4709 19.5685V21.0814C53.4709 23.3003 53.175 25.2973 52.5833 27.0725C51.9916 28.8341 51.1511 30.3336 50.0619 31.5708C48.9726 32.808 47.6749 33.7561 46.1687 34.415C44.6625 35.074 42.9883 35.4034 41.1459 35.4034C39.3304 35.4034 37.6629 35.074 36.1433 34.415C34.6371 33.7561 33.3327 32.808 32.2299 31.5708C31.1272 30.3336 30.2733 28.8341 29.6681 27.0725C29.063 25.2973 28.7604 23.3003 28.7604 21.0814V19.5685C28.7604 17.3362 29.063 15.3392 29.6681 13.5775C30.2733 11.8158 31.1205 10.3164 32.2098 9.07917C33.299 7.82852 34.5968 6.87372 36.1029 6.21477C37.6225 5.55582 39.2901 5.22635 41.1056 5.22635C42.9479 5.22635 44.6222 5.55582 46.1283 6.21477C47.6345 6.87372 48.9322 7.82852 50.0215 9.07917C51.1242 10.3164 51.9715 11.8158 52.5632 13.5775C53.1683 15.3392 53.4709 17.3362 53.4709 19.5685ZM47.8631 21.0814V19.5282C47.8631 17.9279 47.7152 16.5226 47.4193 15.3123C47.1235 14.0885 46.6864 13.0598 46.1082 12.226C45.5299 11.3922 44.8172 10.7669 43.97 10.35C43.1227 9.91967 42.1679 9.7045 41.1056 9.7045C40.0297 9.7045 39.0749 9.91967 38.2411 10.35C37.4208 10.7669 36.7215 11.3922 36.1433 12.226C35.565 13.0598 35.1212 14.0885 34.8119 15.3123C34.5161 16.5226 34.3682 17.9279 34.3682 19.5282V21.0814C34.3682 22.6683 34.5161 24.0736 34.8119 25.2973C35.1212 26.5211 35.565 27.5566 36.1433 28.4038C36.735 29.2376 37.4477 29.8696 38.2815 30.3C39.1153 30.7303 40.0701 30.9455 41.1459 30.9455C42.2217 30.9455 43.1765 30.7303 44.0103 30.3C44.8441 29.8696 45.5434 29.2376 46.1082 28.4038C46.6864 27.5566 47.1235 26.5211 47.4193 25.2973C47.7152 24.0736 47.8631 22.6683 47.8631 21.0814ZM70.2694 5.62979V35H64.7423V5.62979H70.2694ZM79.387 5.62979V10.0071H55.7255V5.62979H79.387Z" fill="#1D1D1B"/>
</svg>
